# Blender v2.93.4 OBJ File: 'objects.blend'
# www.blender.org
mtllib road.mtl
o Road_Plane.002
v 1.600000 0.180000 10.000000
v 1.600000 0.180000 -10.000000
v 1.600000 0.380000 10.000000
v 1.600000 0.380000 -10.000000
v 1.000000 0.000000 10.000000
v 1.000000 0.000000 -10.000000
v 0.500000 0.010000 10.000000
v 0.500000 0.010000 -10.000000
v 1.500000 -0.020000 10.000000
v 1.500000 -0.020000 -10.000000
v 1.250000 -0.020000 10.000000
v 1.250000 -0.020000 -10.000000
v 1.500000 0.080000 10.000000
v 1.500000 0.080000 -10.000000
v 1.600000 0.080000 10.000000
v 1.600000 0.080000 -10.000000
v 1.600000 -0.020000 10.000000
v 1.600000 -0.020000 -10.000000
v 3.600000 0.480000 10.000000
v 3.600000 0.480000 -10.000000
v 3.600000 0.980000 10.000000
v 3.600000 0.980000 -10.000000
v 5.600000 1.230000 10.000000
v 5.600000 1.230000 -10.000000
v -1.600000 0.180000 10.000000
v -1.600000 0.180000 -10.000000
v -1.600000 0.380000 10.000000
v -1.600000 0.380000 -10.000000
v -1.000000 0.000000 10.000000
v -1.000000 0.000000 -10.000000
v 0.000000 0.010000 10.000000
v 0.000000 0.010000 -10.000000
v -0.500000 0.010000 10.000000
v -0.500000 0.010000 -10.000000
v -1.500000 -0.020000 10.000000
v -1.500000 -0.020000 -10.000000
v -1.250000 -0.020000 10.000000
v -1.250000 -0.020000 -10.000000
v -1.500000 0.080000 10.000000
v -1.500000 0.080000 -10.000000
v -1.600000 0.080000 10.000000
v -1.600000 0.080000 -10.000000
v -1.600000 -0.020000 10.000000
v -1.600000 -0.020000 -10.000000
v -3.600000 0.480000 10.000000
v -3.600000 0.480000 -10.000000
v -3.600000 0.980000 10.000000
v -3.600000 0.980000 -10.000000
v -5.600000 1.230000 10.000000
v -5.600000 1.230000 -10.000000
vt 0.916942 13.098506
vt 0.881032 -12.098506
vt 0.916942 -12.098506
vt 0.638919 13.098506
vt 0.706077 -12.098506
vt 0.706076 13.098506
vt 0.773324 -12.098506
vt 0.773324 13.098506
vt 0.605476 13.098506
vt 0.571852 -12.098506
vt 0.605476 -12.098506
vt 0.638919 -12.098506
vt 0.970784 13.098506
vt 0.952829 -12.098506
vt 0.970785 -12.098506
vt 0.993200 13.098506
vt 0.979750 -12.098506
vt 0.993200 -12.098506
vt 0.925908 -12.098506
vt 0.943863 13.098506
vt 0.925908 13.098506
vt 0.282680 13.098506
vt 0.009189 -12.098506
vt 0.282680 -12.098506
vt 0.872065 13.098506
vt 0.782290 -12.098506
vt 0.872066 -12.098506
vt 0.562886 13.098506
vt 0.291647 -12.098506
vt 0.562886 -12.098506
vt 0.881032 -12.098506
vt 0.916942 13.098506
vt 0.916942 -12.098506
vt 0.706077 -12.098506
vt 0.638919 13.098506
vt 0.706076 13.098506
vt 0.571852 -12.098506
vt 0.605476 13.098506
vt 0.605476 -12.098506
vt 0.638919 -12.098506
vt 0.952829 -12.098506
vt 0.970784 13.098506
vt 0.970785 -12.098506
vt 0.979750 -12.098506
vt 0.993200 13.098506
vt 0.993200 -12.098506
vt 0.943863 13.098506
vt 0.925908 -12.098506
vt 0.925908 13.098506
vt 0.009189 -12.098506
vt 0.282680 13.098506
vt 0.282680 -12.098506
vt 0.782290 -12.098506
vt 0.872065 13.098506
vt 0.872066 -12.098506
vt 0.291647 -12.098506
vt 0.562886 13.098506
vt 0.562886 -12.098506
vt 0.881032 13.098506
vt 0.571852 13.098506
vt 0.952829 13.098506
vt 0.979750 13.098506
vt 0.943863 -12.098506
vt 0.009189 13.098506
vt 0.782290 13.098506
vt 0.291647 13.098506
vt 0.881032 13.098506
vt 0.571852 13.098506
vt 0.952829 13.098506
vt 0.979750 13.098506
vt 0.943863 -12.098506
vt 0.009189 13.098506
vt 0.782290 13.098506
vt 0.291647 13.098506
vn -1.0000 0.0000 0.0000
vn 0.0200 0.9998 0.0000
vn 0.0000 1.0000 0.0000
vn 0.0797 0.9968 0.0000
vn 1.0000 0.0000 0.0000
vn -0.2425 0.9701 0.0000
vn -0.1240 0.9923 0.0000
vn -0.0200 0.9998 0.0000
vn -0.0797 0.9968 0.0000
vn 0.2425 0.9701 0.0000
vn 0.1240 0.9923 0.0000
usemtl Road
s off
f 1/1/1 4/2/1 2/3/1
f 5/4/2 8/5/2 7/6/2
f 7/6/3 32/7/3 31/8/3
f 11/9/3 10/10/3 12/11/3
f 5/4/4 12/11/4 6/12/4
f 9/13/1 14/14/1 10/15/1
f 13/16/3 16/17/3 14/18/3
f 15/19/5 18/20/5 16/21/5
f 17/22/6 20/23/6 18/24/6
f 19/25/1 22/26/1 20/27/1
f 21/28/7 24/29/7 22/30/7
f 28/31/5 25/32/5 26/33/5
f 34/34/8 29/35/8 33/36/8
f 32/7/3 33/36/3 31/8/3
f 36/37/3 37/38/3 38/39/3
f 38/39/9 29/35/9 30/40/9
f 40/41/5 35/42/5 36/43/5
f 42/44/3 39/45/3 40/46/3
f 44/47/1 41/48/1 42/49/1
f 46/50/10 43/51/10 44/52/10
f 48/53/5 45/54/5 46/55/5
f 50/56/11 47/57/11 48/58/11
f 1/1/1 3/59/1 4/2/1
f 5/4/2 6/12/2 8/5/2
f 7/6/3 8/5/3 32/7/3
f 11/9/3 9/60/3 10/10/3
f 5/4/4 11/9/4 12/11/4
f 9/13/1 13/61/1 14/14/1
f 13/16/3 15/62/3 16/17/3
f 15/19/5 17/63/5 18/20/5
f 17/22/6 19/64/6 20/23/6
f 19/25/1 21/65/1 22/26/1
f 21/28/7 23/66/7 24/29/7
f 28/31/5 27/67/5 25/32/5
f 34/34/8 30/40/8 29/35/8
f 32/7/3 34/34/3 33/36/3
f 36/37/3 35/68/3 37/38/3
f 38/39/9 37/38/9 29/35/9
f 40/41/5 39/69/5 35/42/5
f 42/44/3 41/70/3 39/45/3
f 44/47/1 43/71/1 41/48/1
f 46/50/10 45/72/10 43/51/10
f 48/53/5 47/73/5 45/54/5
f 50/56/11 49/74/11 47/57/11
