# Blender v2.93.4 OBJ File: 'wheel.blend'
# www.blender.org
mtllib wheel.mtl
v -0.400000 0.500000 0.000000
v -0.400000 0.461940 -0.191342
v -0.400000 0.353553 -0.353553
v -0.400000 0.191342 -0.461940
v -0.400000 -0.000000 -0.500000
v -0.400000 -0.191342 -0.461940
v -0.400000 -0.353553 -0.353553
v -0.400000 -0.461940 -0.191342
v -0.400000 -0.500000 0.000000
v -0.400000 -0.461940 0.191342
v -0.400000 -0.353553 0.353553
v -0.400000 -0.191342 0.461940
v -0.400000 0.000000 0.500000
v -0.400000 0.191342 0.461940
v -0.400000 0.353553 0.353553
v -0.400000 0.461940 0.191342
v -0.500000 0.414841 -0.171833
v -0.500000 0.449020 0.000000
v -0.500000 0.317505 -0.317505
v -0.500000 0.171833 -0.414841
v -0.500000 -0.000000 -0.449020
v -0.500000 -0.171833 -0.414841
v -0.500000 -0.317505 -0.317505
v -0.500000 -0.414841 -0.171833
v -0.500000 -0.449020 0.000000
v -0.500000 -0.414841 0.171833
v -0.500000 -0.317505 0.317505
v -0.500000 -0.171833 0.414841
v -0.500000 0.000000 0.449020
v -0.500000 0.171833 0.414841
v -0.500000 0.317505 0.317505
v -0.500000 0.414841 0.171833
v -0.302026 0.179346 -0.074288
v -0.302026 0.194123 0.000000
v -0.302026 0.137265 -0.137265
v -0.302026 0.074288 -0.179346
v -0.302026 -0.000000 -0.194123
v -0.302026 -0.074287 -0.179346
v -0.302026 -0.137265 -0.137265
v -0.302026 -0.179346 -0.074288
v -0.302026 -0.194123 0.000000
v -0.302026 -0.179346 0.074288
v -0.302026 -0.137265 0.137265
v -0.302026 -0.074288 0.179346
v -0.302026 0.000000 0.194123
v -0.302026 0.074288 0.179346
v -0.302026 0.137265 0.137265
v -0.302026 0.179346 0.074288
v -0.400000 0.194123 0.000000
v -0.500000 0.245102 0.000000
v -0.500000 0.226445 -0.093797
v -0.400000 0.179346 -0.074288
v -0.500000 0.173313 -0.173313
v -0.400000 0.137265 -0.137265
v -0.500000 0.093797 -0.226445
v -0.400000 0.074288 -0.179346
v -0.500000 -0.000000 -0.245102
v -0.400000 -0.000000 -0.194123
v -0.500000 -0.093797 -0.226445
v -0.400000 -0.074287 -0.179346
v -0.500000 -0.173313 -0.173313
v -0.400000 -0.137265 -0.137265
v -0.500000 -0.226445 -0.093797
v -0.400000 -0.179346 -0.074288
v -0.500000 -0.245102 0.000000
v -0.400000 -0.194123 0.000000
v -0.500000 -0.226445 0.093797
v -0.400000 -0.179346 0.074288
v -0.500000 -0.173313 0.173313
v -0.400000 -0.137265 0.137265
v -0.500000 -0.093797 0.226445
v -0.400000 -0.074288 0.179346
v -0.500000 0.000000 0.245102
v -0.400000 0.000000 0.194123
v -0.500000 0.093797 0.226445
v -0.400000 0.074288 0.179346
v -0.500000 0.173313 0.173313
v -0.400000 0.137265 0.137265
v -0.500000 0.226445 0.093797
v -0.400000 0.179346 0.074288
v 0.400000 0.500000 0.000000
v 0.400000 0.461940 -0.191342
v 0.400000 0.353553 -0.353553
v 0.400000 0.191342 -0.461940
v 0.400000 -0.000000 -0.500000
v 0.400000 -0.191342 -0.461940
v 0.400000 -0.353553 -0.353553
v 0.400000 -0.461940 -0.191342
v 0.400000 -0.500000 0.000000
v 0.400000 -0.461940 0.191342
v 0.400000 -0.353553 0.353553
v 0.400000 -0.191342 0.461940
v 0.400000 0.000000 0.500000
v 0.400000 0.191342 0.461940
v 0.400000 0.353553 0.353553
v 0.400000 0.461940 0.191342
v 0.500000 0.414841 -0.171833
v 0.500000 0.449020 0.000000
v 0.500000 0.317505 -0.317505
v 0.500000 0.171833 -0.414841
v 0.500000 -0.000000 -0.449020
v 0.500000 -0.171833 -0.414841
v 0.500000 -0.317505 -0.317505
v 0.500000 -0.414841 -0.171833
v 0.500000 -0.449020 0.000000
v 0.500000 -0.414841 0.171833
v 0.500000 -0.317505 0.317505
v 0.500000 -0.171833 0.414841
v 0.500000 0.000000 0.449020
v 0.500000 0.171833 0.414841
v 0.500000 0.317505 0.317505
v 0.500000 0.414841 0.171833
v 0.302026 0.179346 -0.074288
v 0.302026 0.194123 0.000000
v 0.302026 0.137265 -0.137265
v 0.302026 0.074288 -0.179346
v 0.302026 -0.000000 -0.194123
v 0.302026 -0.074287 -0.179346
v 0.302026 -0.137265 -0.137265
v 0.302026 -0.179346 -0.074288
v 0.302026 -0.194123 0.000000
v 0.302026 -0.179346 0.074288
v 0.302026 -0.137265 0.137265
v 0.302026 -0.074288 0.179346
v 0.302026 0.000000 0.194123
v 0.302026 0.074288 0.179346
v 0.302026 0.137265 0.137265
v 0.302026 0.179346 0.074288
v 0.400000 0.194123 0.000000
v 0.500000 0.245102 0.000000
v 0.500000 0.226445 -0.093797
v 0.400000 0.179346 -0.074288
v 0.500000 0.173313 -0.173313
v 0.400000 0.137265 -0.137265
v 0.500000 0.093797 -0.226445
v 0.400000 0.074288 -0.179346
v 0.500000 -0.000000 -0.245102
v 0.400000 -0.000000 -0.194123
v 0.500000 -0.093797 -0.226445
v 0.400000 -0.074287 -0.179346
v 0.500000 -0.173313 -0.173313
v 0.400000 -0.137265 -0.137265
v 0.500000 -0.226445 -0.093797
v 0.400000 -0.179346 -0.074288
v 0.500000 -0.245102 0.000000
v 0.400000 -0.194123 0.000000
v 0.500000 -0.226445 0.093797
v 0.400000 -0.179346 0.074288
v 0.500000 -0.173313 0.173313
v 0.400000 -0.137265 0.137265
v 0.500000 -0.093797 0.226445
v 0.400000 -0.074288 0.179346
v 0.500000 0.000000 0.245102
v 0.400000 0.000000 0.194123
v 0.500000 0.093797 0.226445
v 0.400000 0.074288 0.179346
v 0.500000 0.173313 0.173313
v 0.400000 0.137265 0.137265
v 0.500000 0.226445 0.093797
v 0.400000 0.179346 0.074288
v 0.000000 0.500000 0.000000
v 0.000000 0.461940 -0.191342
v 0.000000 0.461940 0.191342
v 0.000000 0.353553 -0.353553
v 0.000000 0.191342 -0.461940
v 0.000000 -0.000000 -0.500000
v 0.000000 -0.191342 -0.461940
v 0.000000 -0.353553 -0.353553
v 0.000000 -0.461940 -0.191342
v 0.000000 -0.500000 0.000000
v 0.000000 -0.461940 0.191342
v 0.000000 -0.353553 0.353553
v 0.000000 -0.191342 0.461940
v 0.000000 0.000000 0.500000
v 0.000000 0.191342 0.461940
v 0.000000 0.353553 0.353553
vt 0.752030 0.262929
vt 0.755885 0.233894
vt 0.765031 0.243755
vt 0.998863 0.259773
vt 0.952888 0.183960
vt 0.998863 0.173934
vt 0.926352 0.313671
vt 0.952527 0.251446
vt 0.905108 0.399888
vt 0.965988 0.339139
vt 0.815600 0.386415
vt 0.878275 0.361110
vt 0.739249 0.431983
vt 0.825435 0.432572
vt 0.660038 0.398149
vt 0.747974 0.385609
vt 0.600244 0.336572
vt 0.685906 0.358803
vt 0.614310 0.247941
vt 0.639022 0.310218
vt 0.569140 0.172544
vt 0.568600 0.257514
vt 0.601821 0.094090
vt 0.615008 0.180980
vt 0.662000 0.033875
vt 0.641061 0.119337
vt 0.740811 0.001157
vt 0.688680 0.072247
vt 0.826339 0.001137
vt 0.750796 0.046912
vt 0.905475 0.033962
vt 0.818016 0.047316
vt 0.966067 0.094649
vt 0.880066 0.073491
vt 0.927437 0.121475
vt 0.838695 0.206215
vt 0.810932 0.198677
vt 0.830347 0.185517
vt 0.830101 0.248899
vt 0.801438 0.245543
vt 0.810689 0.236519
vt 0.794033 0.272508
vt 0.814432 0.264378
vt 0.776674 0.249552
vt 0.789476 0.250135
vt 0.772076 0.272007
vt 0.728075 0.226322
vt 0.736298 0.247168
vt 0.728205 0.204073
vt 0.750997 0.221350
vt 0.736664 0.183721
vt 0.751070 0.208011
vt 0.765124 0.187051
vt 0.755978 0.195970
vt 0.772575 0.160195
vt 0.752237 0.168307
vt 0.765307 0.123024
vt 0.802197 0.123350
vt 0.789996 0.183212
vt 0.777073 0.182603
vt 0.814855 0.169507
vt 0.794569 0.160614
vt 0.801857 0.188868
vt 0.876276 0.198665
vt 0.876146 0.235770
vt 0.815759 0.224455
vt 0.838621 0.228467
vt 0.704864 0.489425
vt 0.694492 0.541572
vt 0.650284 0.571110
vt 0.730002 0.294917
vt 0.704763 0.267791
vt 0.836248 0.137836
vt 0.690769 0.233621
vt 0.862262 0.164282
vt 0.861860 0.269958
vt 0.690923 0.196746
vt 0.835566 0.295996
vt 0.705111 0.162788
vt 0.801276 0.309877
vt 0.731216 0.136889
vt 0.764232 0.309476
vt 0.815813 0.211175
vt 0.566327 0.344521
vt 0.401849 0.259031
vt 0.566327 0.231163
vt 0.523656 0.126357
vt 0.353692 0.391507
vt 0.523670 0.449598
vt 0.444415 0.530710
vt 0.310780 0.412095
vt 0.340067 0.574843
vt 0.263617 0.413787
vt 0.226936 0.574742
vt 0.219628 0.396202
vt 0.122909 0.530664
vt 0.184977 0.362358
vt 0.043703 0.449904
vt 0.165729 0.317205
vt 0.001142 0.344957
vt 0.165021 0.267474
vt 0.001137 0.231599
vt 0.181375 0.220843
vt 0.043660 0.126294
vt 0.213745 0.184615
vt 0.123157 0.045161
vt 0.227711 0.001137
vt 0.304190 0.162292
vt 0.340900 0.001375
vt 0.444809 0.045635
vt 0.382074 0.213839
vt 0.403125 0.308569
vt 0.752030 0.262929
vt 0.755885 0.233894
vt 0.736298 0.247168
vt 0.952888 0.183960
vt 0.998863 0.259773
vt 0.998863 0.173934
vt 0.926352 0.313671
vt 0.965988 0.339139
vt 0.905108 0.399888
vt 0.815600 0.386415
vt 0.825435 0.432572
vt 0.739249 0.431983
vt 0.747974 0.385609
vt 0.660038 0.398149
vt 0.685906 0.358803
vt 0.600244 0.336572
vt 0.614310 0.247941
vt 0.568600 0.257514
vt 0.569140 0.172544
vt 0.615008 0.180980
vt 0.601821 0.094090
vt 0.641061 0.119337
vt 0.662000 0.033875
vt 0.688680 0.072247
vt 0.740811 0.001157
vt 0.750796 0.046912
vt 0.826339 0.001137
vt 0.818016 0.047316
vt 0.905475 0.033962
vt 0.880066 0.073491
vt 0.966067 0.094649
vt 0.810932 0.198677
vt 0.838695 0.206215
vt 0.830347 0.185517
vt 0.830101 0.248899
vt 0.801438 0.245543
vt 0.814432 0.264378
vt 0.794033 0.272508
vt 0.776674 0.249552
vt 0.772076 0.272007
vt 0.728075 0.226322
vt 0.750997 0.221350
vt 0.728205 0.204073
vt 0.751070 0.208011
vt 0.736664 0.183721
vt 0.765124 0.187051
vt 0.752237 0.168307
vt 0.772575 0.160195
vt 0.765307 0.123024
vt 0.802197 0.123350
vt 0.789996 0.183212
vt 0.794569 0.160614
vt 0.814855 0.169507
vt 0.801857 0.188868
vt 0.952527 0.251446
vt 0.876276 0.198665
vt 0.876146 0.235770
vt 0.815759 0.224455
vt 0.838621 0.228467
vt 0.568600 0.516530
vt 0.598138 0.560738
vt 0.675326 0.445218
vt 0.639022 0.310218
vt 0.730002 0.294917
vt 0.704763 0.267791
vt 0.836248 0.137836
vt 0.927437 0.121475
vt 0.862262 0.164282
vt 0.690769 0.233621
vt 0.861860 0.269958
vt 0.690923 0.196746
vt 0.835566 0.295996
vt 0.705111 0.162788
vt 0.801276 0.309877
vt 0.731216 0.136889
vt 0.764232 0.309476
vt 0.815813 0.211175
vt 0.566327 0.344521
vt 0.523656 0.126357
vt 0.566327 0.231163
vt 0.523670 0.449598
vt 0.444415 0.530710
vt 0.340067 0.574843
vt 0.226936 0.574742
vt 0.122909 0.530664
vt 0.043703 0.449904
vt 0.001142 0.344957
vt 0.001137 0.231599
vt 0.043660 0.126294
vt 0.123157 0.045161
vt 0.227711 0.001137
vt 0.257015 0.164118
vt 0.340900 0.001375
vt 0.444809 0.045635
vt 0.348166 0.179729
vt 0.385646 0.355026
vt 0.623179 0.571110
vt 0.598138 0.560738
vt 0.578972 0.541572
vt 0.568600 0.516530
vt 0.568600 0.489425
vt 0.578972 0.464384
vt 0.598138 0.445218
vt 0.623179 0.434846
vt 0.650284 0.434846
vt 0.675326 0.445218
vt 0.694492 0.464384
vt 0.704864 0.516530
vt 0.675326 0.560738
vt 0.765031 0.243755
vt 0.878275 0.361110
vt 0.810689 0.236519
vt 0.789476 0.250135
vt 0.755978 0.195970
vt 0.777073 0.182603
vt 0.623179 0.571110
vt 0.650284 0.571110
vt 0.675326 0.560738
vt 0.694492 0.541572
vt 0.704864 0.516530
vt 0.704864 0.489425
vt 0.694492 0.464384
vt 0.650284 0.434846
vt 0.623179 0.434846
vt 0.598138 0.445218
vt 0.578972 0.464384
vt 0.568600 0.489425
vt 0.578972 0.541572
vn 0.0000 0.8315 0.5556
vn -0.4472 0.8772 -0.1745
vn -0.4472 0.7437 -0.4969
vn -0.4472 0.4969 -0.7437
vn -0.4472 0.1745 -0.8772
vn -0.4472 -0.1745 -0.8772
vn -0.4472 -0.4969 -0.7437
vn -0.4472 -0.7437 -0.4969
vn -0.4472 -0.8772 -0.1745
vn -0.4472 -0.8772 0.1745
vn -0.4472 -0.7437 0.4969
vn -0.4472 -0.4969 0.7437
vn -0.4472 -0.1745 0.8772
vn -0.4472 0.1745 0.8772
vn -0.4472 0.4969 0.7437
vn -0.4472 0.7437 0.4969
vn -0.4472 0.8772 0.1745
vn 0.0000 -0.9808 -0.1951
vn 0.0000 -0.5556 0.8315
vn 0.0000 -0.1951 0.9808
vn 0.0000 0.1951 0.9808
vn 0.0000 0.5556 0.8315
vn 0.0000 0.9808 0.1951
vn 0.0000 0.9808 -0.1951
vn 0.0000 0.8315 -0.5556
vn 0.0000 0.5556 -0.8315
vn 0.0000 0.1951 -0.9808
vn -1.0000 0.0000 0.0000
vn 0.0000 -0.1951 -0.9808
vn 0.0000 -0.5556 -0.8315
vn -0.0000 -0.8315 -0.5556
vn 0.0000 -0.8315 0.5556
vn 0.0000 -0.9808 0.1951
vn 0.4472 0.8772 -0.1745
vn 0.4472 0.7437 -0.4969
vn 0.4472 0.4969 -0.7437
vn 0.4472 0.1745 -0.8772
vn 0.4472 -0.1745 -0.8772
vn 0.4472 -0.4969 -0.7437
vn 0.4472 -0.7437 -0.4969
vn 0.4472 -0.8772 -0.1745
vn 0.4472 -0.8772 0.1745
vn 0.4472 -0.7437 0.4969
vn 0.4472 -0.4969 0.7437
vn 0.4472 -0.1745 0.8772
vn 0.4472 0.1745 0.8772
vn 0.4472 0.4969 0.7437
vn 0.4472 0.7437 0.4969
vn 0.4472 0.8772 0.1745
vn 1.0000 -0.0000 0.0000
usemtl Tire
s off
f 62/1/1 40/2/1 39/3/1
f 2/4/2 18/5/2 1/6/2
f 2/4/3 19/7/3 17/8/3
f 4/9/4 19/7/4 3/10/4
f 4/9/5 21/11/5 20/12/5
f 6/13/6 21/11/6 5/14/6
f 7/15/7 22/16/7 6/13/7
f 8/17/8 23/18/8 7/15/8
f 8/17/9 25/19/9 24/20/9
f 10/21/10 25/19/10 9/22/10
f 11/23/11 26/24/11 10/21/11
f 12/25/12 27/26/12 11/23/12
f 13/27/13 28/28/13 12/25/13
f 14/29/14 29/30/14 13/27/14
f 15/31/15 30/32/15 14/29/15
f 16/33/16 31/34/16 15/31/16
f 16/33/17 18/5/17 32/35/17
f 49/36/18 48/37/18 80/38/18
f 54/39/19 36/40/19 35/41/19
f 58/42/20 36/40/20 56/43/20
f 58/42/21 38/44/21 37/45/21
f 62/1/22 38/44/22 60/46/22
f 66/47/23 40/2/23 64/48/23
f 68/49/24 41/50/24 66/47/24
f 70/51/25 42/52/25 68/49/25
f 70/51/26 44/53/26 43/54/26
f 74/55/27 44/53/27 72/56/27
f 73/57/28 30/32/28 75/58/28
f 74/55/29 46/59/29 45/60/29
f 78/61/30 46/59/30 76/62/30
f 80/38/31 47/63/31 78/61/31
f 50/64/28 17/8/28 51/65/28
f 54/39/32 33/66/32 52/67/32
f 44/68/28 46/69/28 48/70/28
f 61/71/28 24/20/28 63/72/28
f 77/73/28 30/32/28 31/34/28
f 50/64/28 32/35/28 18/5/28
f 65/74/28 24/20/28 25/19/28
f 77/73/28 32/35/28 79/75/28
f 53/76/28 17/8/28 19/7/28
f 65/74/28 26/24/28 67/77/28
f 55/78/28 19/7/28 20/12/28
f 69/79/28 26/24/28 27/26/28
f 55/78/28 21/11/28 57/80/28
f 71/81/28 27/26/28 28/28/28
f 57/80/28 22/16/28 59/82/28
f 73/57/28 28/28/28 29/30/28
f 59/82/28 23/18/28 61/71/28
f 49/36/10 51/65/10 52/67/10
f 54/39/11 51/65/11 53/76/11
f 56/43/12 53/76/12 55/78/12
f 56/43/13 57/80/13 58/42/13
f 60/46/14 57/80/14 59/82/14
f 60/46/15 61/71/15 62/1/15
f 64/48/16 61/71/16 63/72/16
f 64/48/17 65/74/17 66/47/17
f 66/47/2 67/77/2 68/49/2
f 68/49/3 69/79/3 70/51/3
f 72/56/4 69/79/4 71/81/4
f 72/56/5 73/57/5 74/55/5
f 76/62/6 73/57/6 75/58/6
f 76/62/7 77/73/7 78/61/7
f 80/38/8 77/73/8 79/75/8
f 49/36/9 79/75/9 50/64/9
f 52/67/33 34/83/33 49/36/33
f 1/84/24 162/85/24 2/86/24
f 162/85/25 3/87/25 2/86/25
f 176/88/1 16/89/1 15/90/1
f 175/91/22 15/90/22 14/92/22
f 174/93/21 14/92/21 13/94/21
f 173/95/20 13/94/20 12/96/20
f 172/97/19 12/96/19 11/98/19
f 171/99/32 11/98/32 10/100/32
f 170/101/33 10/100/33 9/102/33
f 169/103/18 9/102/18 8/104/18
f 168/105/31 8/104/31 7/106/31
f 6/107/30 168/105/30 7/106/30
f 166/108/29 6/107/29 5/109/29
f 4/110/27 166/108/27 5/109/27
f 164/111/26 4/110/26 3/87/26
f 16/89/23 161/112/23 1/84/23
f 142/113/1 120/114/1 144/115/1
f 98/116/34 82/117/34 81/118/34
f 82/117/35 99/119/35 83/120/35
f 99/119/36 84/121/36 83/120/36
f 84/121/37 101/122/37 85/123/37
f 101/122/38 86/124/38 85/123/38
f 102/125/39 87/126/39 86/124/39
f 103/127/40 88/128/40 87/126/40
f 88/128/41 105/129/41 89/130/41
f 105/129/42 90/131/42 89/130/42
f 106/132/43 91/133/43 90/131/43
f 107/134/44 92/135/44 91/133/44
f 108/136/45 93/137/45 92/135/45
f 109/138/46 94/139/46 93/137/46
f 110/140/47 95/141/47 94/139/47
f 111/142/48 96/143/48 95/141/48
f 96/143/49 98/116/49 81/118/49
f 128/144/18 129/145/18 160/146/18
f 134/147/19 116/148/19 136/149/19
f 116/148/20 138/150/20 136/149/20
f 138/150/21 118/151/21 140/152/21
f 118/151/22 142/113/22 140/152/22
f 120/114/23 146/153/23 144/115/23
f 121/154/24 148/155/24 146/153/24
f 122/156/25 150/157/25 148/155/25
f 150/157/26 124/158/26 152/159/26
f 124/158/27 154/160/27 152/159/27
f 110/140/50 153/161/50 155/162/50
f 154/160/29 126/163/29 156/164/29
f 126/163/30 158/165/30 156/164/30
f 127/166/31 160/146/31 158/165/31
f 97/167/50 130/168/50 131/169/50
f 113/170/32 134/147/32 132/171/32
f 116/172/50 113/173/50 122/174/50
f 104/175/50 141/176/50 143/177/50
f 157/178/50 110/140/50 155/162/50
f 130/168/50 112/179/50 159/180/50
f 145/181/50 104/175/50 143/177/50
f 112/179/50 157/178/50 159/180/50
f 133/182/50 97/167/50 131/169/50
f 106/132/50 145/181/50 147/183/50
f 135/184/50 99/119/50 133/182/50
f 149/185/50 106/132/50 147/183/50
f 101/122/50 135/184/50 137/186/50
f 151/187/50 107/134/50 149/185/50
f 102/125/50 137/186/50 139/188/50
f 153/161/50 108/136/50 151/187/50
f 103/127/50 139/188/50 141/176/50
f 131/169/42 129/145/42 132/171/42
f 134/147/43 131/169/43 132/171/43
f 136/149/44 133/182/44 134/147/44
f 137/186/45 136/149/45 138/150/45
f 140/152/46 137/186/46 138/150/46
f 141/176/47 140/152/47 142/113/47
f 144/115/48 141/176/48 142/113/48
f 145/181/49 144/115/49 146/153/49
f 147/183/34 146/153/34 148/155/34
f 149/185/35 148/155/35 150/157/35
f 152/159/36 149/185/36 150/157/36
f 153/161/37 152/159/37 154/160/37
f 156/164/38 153/161/38 154/160/38
f 157/178/39 156/164/39 158/165/39
f 160/146/40 157/178/40 158/165/40
f 129/145/41 159/180/41 160/146/41
f 114/189/33 132/171/33 129/145/33
f 81/190/24 162/85/24 161/112/24
f 83/191/25 162/85/25 82/192/25
f 96/193/1 176/88/1 95/194/1
f 95/194/22 175/91/22 94/195/22
f 94/195/21 174/93/21 93/196/21
f 93/196/20 173/95/20 92/197/20
f 92/197/19 172/97/19 91/198/19
f 91/198/32 171/99/32 90/199/32
f 90/199/33 170/101/33 89/200/33
f 89/200/18 169/103/18 88/201/18
f 88/201/31 168/105/31 87/202/31
f 86/203/30 168/105/30 167/204/30
f 86/203/29 166/108/29 85/205/29
f 84/206/27 166/108/27 165/207/27
f 84/206/26 164/111/26 83/191/26
f 96/193/23 161/112/23 163/208/23
f 62/1/1 64/48/1 40/2/1
f 2/4/2 17/8/2 18/5/2
f 2/4/3 3/10/3 19/7/3
f 4/9/4 20/12/4 19/7/4
f 4/9/5 5/14/5 21/11/5
f 6/13/6 22/16/6 21/11/6
f 7/15/7 23/18/7 22/16/7
f 8/17/8 24/20/8 23/18/8
f 8/17/9 9/22/9 25/19/9
f 10/21/10 26/24/10 25/19/10
f 11/23/11 27/26/11 26/24/11
f 12/25/12 28/28/12 27/26/12
f 13/27/13 29/30/13 28/28/13
f 14/29/14 30/32/14 29/30/14
f 15/31/15 31/34/15 30/32/15
f 16/33/16 32/35/16 31/34/16
f 16/33/17 1/6/17 18/5/17
f 49/36/18 34/83/18 48/37/18
f 54/39/19 56/43/19 36/40/19
f 58/42/20 37/45/20 36/40/20
f 58/42/21 60/46/21 38/44/21
f 62/1/22 39/3/22 38/44/22
f 66/47/23 41/50/23 40/2/23
f 68/49/24 42/52/24 41/50/24
f 70/51/25 43/54/25 42/52/25
f 70/51/26 72/56/26 44/53/26
f 74/55/27 45/60/27 44/53/27
f 73/57/28 29/30/28 30/32/28
f 74/55/29 76/62/29 46/59/29
f 78/61/30 47/63/30 46/59/30
f 80/38/31 48/37/31 47/63/31
f 50/64/28 18/5/28 17/8/28
f 54/39/32 35/41/32 33/66/32
f 48/70/28 34/209/28 33/210/28
f 33/210/28 35/211/28 36/212/28
f 36/212/28 37/213/28 38/214/28
f 38/214/28 39/215/28 36/212/28
f 39/215/28 40/216/28 36/212/28
f 40/216/28 41/217/28 42/218/28
f 42/218/28 43/219/28 44/68/28
f 44/68/28 45/220/28 46/69/28
f 46/69/28 47/221/28 48/70/28
f 48/70/28 33/210/28 40/216/28
f 33/210/28 36/212/28 40/216/28
f 40/216/28 42/218/28 48/70/28
f 42/218/28 44/68/28 48/70/28
f 61/71/28 23/18/28 24/20/28
f 77/73/28 75/58/28 30/32/28
f 50/64/28 79/75/28 32/35/28
f 65/74/28 63/72/28 24/20/28
f 77/73/28 31/34/28 32/35/28
f 53/76/28 51/65/28 17/8/28
f 65/74/28 25/19/28 26/24/28
f 55/78/28 53/76/28 19/7/28
f 69/79/28 67/77/28 26/24/28
f 55/78/28 20/12/28 21/11/28
f 71/81/28 69/79/28 27/26/28
f 57/80/28 21/11/28 22/16/28
f 73/57/28 71/81/28 28/28/28
f 59/82/28 22/16/28 23/18/28
f 49/36/10 50/64/10 51/65/10
f 54/39/11 52/67/11 51/65/11
f 56/43/12 54/39/12 53/76/12
f 56/43/13 55/78/13 57/80/13
f 60/46/14 58/42/14 57/80/14
f 60/46/15 59/82/15 61/71/15
f 64/48/16 62/1/16 61/71/16
f 64/48/17 63/72/17 65/74/17
f 66/47/2 65/74/2 67/77/2
f 68/49/3 67/77/3 69/79/3
f 72/56/4 70/51/4 69/79/4
f 72/56/5 71/81/5 73/57/5
f 76/62/6 74/55/6 73/57/6
f 76/62/7 75/58/7 77/73/7
f 80/38/8 78/61/8 77/73/8
f 49/36/9 80/38/9 79/75/9
f 52/67/33 33/66/33 34/83/33
f 1/84/24 161/112/24 162/85/24
f 162/85/25 164/111/25 3/87/25
f 176/88/1 163/208/1 16/89/1
f 175/91/22 176/88/22 15/90/22
f 174/93/21 175/91/21 14/92/21
f 173/95/20 174/93/20 13/94/20
f 172/97/19 173/95/19 12/96/19
f 171/99/32 172/97/32 11/98/32
f 170/101/33 171/99/33 10/100/33
f 169/103/18 170/101/18 9/102/18
f 168/105/31 169/103/31 8/104/31
f 6/107/30 167/204/30 168/105/30
f 166/108/29 167/204/29 6/107/29
f 4/110/27 165/207/27 166/108/27
f 164/111/26 165/207/26 4/110/26
f 16/89/23 163/208/23 161/112/23
f 142/113/1 119/222/1 120/114/1
f 98/116/34 97/167/34 82/117/34
f 82/117/35 97/167/35 99/119/35
f 99/119/36 100/223/36 84/121/36
f 84/121/37 100/223/37 101/122/37
f 101/122/38 102/125/38 86/124/38
f 102/125/39 103/127/39 87/126/39
f 103/127/40 104/175/40 88/128/40
f 88/128/41 104/175/41 105/129/41
f 105/129/42 106/132/42 90/131/42
f 106/132/43 107/134/43 91/133/43
f 107/134/44 108/136/44 92/135/44
f 108/136/45 109/138/45 93/137/45
f 109/138/46 110/140/46 94/139/46
f 110/140/47 111/142/47 95/141/47
f 111/142/48 112/179/48 96/143/48
f 96/143/49 112/179/49 98/116/49
f 128/144/18 114/189/18 129/145/18
f 134/147/19 115/224/19 116/148/19
f 116/148/20 117/225/20 138/150/20
f 138/150/21 117/225/21 118/151/21
f 118/151/22 119/222/22 142/113/22
f 120/114/23 121/154/23 146/153/23
f 121/154/24 122/156/24 148/155/24
f 122/156/25 123/226/25 150/157/25
f 150/157/26 123/226/26 124/158/26
f 124/158/27 125/227/27 154/160/27
f 110/140/50 109/138/50 153/161/50
f 154/160/29 125/227/29 126/163/29
f 126/163/30 127/166/30 158/165/30
f 127/166/31 128/144/31 160/146/31
f 97/167/50 98/116/50 130/168/50
f 113/170/32 115/224/32 134/147/32
f 113/173/50 114/228/50 128/229/50
f 128/229/50 127/230/50 126/231/50
f 126/231/50 125/232/50 124/233/50
f 124/233/50 123/234/50 122/174/50
f 122/174/50 121/235/50 120/236/50
f 120/236/50 119/237/50 122/174/50
f 119/237/50 118/238/50 122/174/50
f 118/238/50 117/239/50 116/172/50
f 116/172/50 115/240/50 113/173/50
f 113/173/50 128/229/50 126/231/50
f 126/231/50 124/233/50 113/173/50
f 124/233/50 122/174/50 113/173/50
f 118/238/50 116/172/50 122/174/50
f 104/175/50 103/127/50 141/176/50
f 157/178/50 111/142/50 110/140/50
f 130/168/50 98/116/50 112/179/50
f 145/181/50 105/129/50 104/175/50
f 112/179/50 111/142/50 157/178/50
f 133/182/50 99/119/50 97/167/50
f 106/132/50 105/129/50 145/181/50
f 135/184/50 100/223/50 99/119/50
f 149/185/50 107/134/50 106/132/50
f 101/122/50 100/223/50 135/184/50
f 151/187/50 108/136/50 107/134/50
f 102/125/50 101/122/50 137/186/50
f 153/161/50 109/138/50 108/136/50
f 103/127/50 102/125/50 139/188/50
f 131/169/42 130/168/42 129/145/42
f 134/147/43 133/182/43 131/169/43
f 136/149/44 135/184/44 133/182/44
f 137/186/45 135/184/45 136/149/45
f 140/152/46 139/188/46 137/186/46
f 141/176/47 139/188/47 140/152/47
f 144/115/48 143/177/48 141/176/48
f 145/181/49 143/177/49 144/115/49
f 147/183/34 145/181/34 146/153/34
f 149/185/35 147/183/35 148/155/35
f 152/159/36 151/187/36 149/185/36
f 153/161/37 151/187/37 152/159/37
f 156/164/38 155/162/38 153/161/38
f 157/178/39 155/162/39 156/164/39
f 160/146/40 159/180/40 157/178/40
f 129/145/41 130/168/41 159/180/41
f 114/189/33 113/170/33 132/171/33
f 81/190/24 82/192/24 162/85/24
f 83/191/25 164/111/25 162/85/25
f 96/193/1 163/208/1 176/88/1
f 95/194/22 176/88/22 175/91/22
f 94/195/21 175/91/21 174/93/21
f 93/196/20 174/93/20 173/95/20
f 92/197/19 173/95/19 172/97/19
f 91/198/32 172/97/32 171/99/32
f 90/199/33 171/99/33 170/101/33
f 89/200/18 170/101/18 169/103/18
f 88/201/31 169/103/31 168/105/31
f 86/203/30 87/202/30 168/105/30
f 86/203/29 167/204/29 166/108/29
f 84/206/27 85/205/27 166/108/27
f 84/206/26 165/207/26 164/111/26
f 96/193/23 81/190/23 161/112/23
